<?xml version="1.0" encoding="utf-8"?>
<!-- Generator: Adobe Illustrator 20.1.0, SVG Export Plug-In . SVG Version: 6.00 Build 0)  -->
<svg version="1.1" id="_x37_6d98801-3a87-461e-b488-021b663cdcb4"
	 xmlns="http://www.w3.org/2000/svg" xmlns:xlink="http://www.w3.org/1999/xlink" x="0px" y="0px" viewBox="0 0 1056.3 808.9"
	 style="enable-background:new 0 0 1056.3 808.9;" xml:space="preserve">
<style type="text/css">
	.st0{opacity:0.1;fill:#FF6482;enable-background:new    ;}
	.st1{opacity:0.1;fill:#6C63FF;enable-background:new    ;}
	.st2{fill:#D8343A;}
	.st3{fill:none;stroke:#565987;stroke-miterlimit:10;}
	.st4{fill:#DD525D;}
	.st5{opacity:0.1;enable-background:new    ;}
	.st6{fill:#FFD037;}
	.st7{fill:#A8A8A8;}
	.st8{opacity:0.2;enable-background:new    ;}
	.st9{fill:#EFB7B9;}
	.st10{opacity:5.000000e-02;enable-background:new    ;}
	.st11{fill:none;}
	.st12{fill:#65617D;}
	.st13{fill:#DCE0ED;}
	.st14{fill:#444053;}
	.st15{fill:#A36468;}
	.st16{opacity:0.1;}
	.st17{fill:#DDA2A6;}
	.st18{fill:#B77B7F;}
	.st19{opacity:0.3;fill:#FFFFFF;enable-background:new    ;}
</style>
<title>on the way</title>
<path class="st0" d="M1035.8,218.5c-10.5-24.3-24.6-46.8-41.9-66.8l-581.3-5.7l478.6-67.2c-30.9-12.3-63.8-18.8-97.1-19.3
	c-94-75.2-226.2-79.6-325.1-11c-38.5-19.8-81.2-30.1-124.4-30c-129.2,0-236.8,89.5-260.9,208.1L1035.8,218.5z"/>
<path class="st0" d="M1056.3,318c0-32.2-6.1-64-18.1-93.9L30.7,329.9c-10.4,18.8-18.3,38.8-23.6,59.6l312,46.5L0,469.9
	c9.6,134.3,124.7,240.3,265.4,240.3c70.8,0,135.1-26.9,182.8-70.7c47.8,44.7,112.8,72.1,184.3,72.1c106.2,0,197.8-60.5,240.5-147.9
	c85.6-27.2,152.1-95.4,174.9-180.7l-394.5-61.2h403C1056.3,320.6,1056.3,319.3,1056.3,318z"/>
<ellipse class="st1" cx="28.1" cy="738.8" rx="25.8" ry="3.5"/>
<ellipse class="st1" cx="127" cy="748.8" rx="25.8" ry="3.5"/>
<ellipse class="st1" cx="243.5" cy="735.2" rx="25.8" ry="3.5"/>
<ellipse class="st1" cx="87.4" cy="777.4" rx="18.4" ry="2.5"/>
<ellipse class="st1" cx="190.1" cy="774.9" rx="18.4" ry="2.5"/>
<path class="st2" d="M127.6,748c0,0-36.2-118.7,5.7-166.3c31.3-35.6,66.9-31.3,82.8-26.9c8.3,2.2,15.3,8,19,15.8
	c5.6,12,4.6,31.5-34.8,54.3c-65.8,38.1-69.9,90.4-69.9,90.4L127.6,748z"/>
<path class="st3" d="M210.4,571.7c0,0-106.8,33.4-82.8,176.4"/>
<path class="st3" d="M148.1,583.6c0,0,14.7,9.9,10,24.8"/>
<path class="st3" d="M199.7,592.4c0,0-9-9.1-19.9-4.1"/>
<path class="st3" d="M157.5,638.4c0,0-15.8-8-19.9,2"/>
<path class="st3" d="M118.4,655.1c0,0,11.9-0.9,12.1,4.7"/>
<path class="st2" d="M126.1,749c0,0,42.4-86.3,54.1-84.4c5.5,0.9,8.1,6.3,9.2,11.8c1.4,7.1,0.6,14.5-2.3,21.1
	C181.1,711.2,164.9,737.4,126.1,749z"/>
<path class="st3" d="M179.9,681c0,0-44.5,64.6-53.1,67.4"/>
<line class="st3" x1="184" y1="691" x2="173.6" y2="691"/>
<line class="st3" x1="171.5" y1="714.6" x2="155.2" y2="715.3"/>
<line class="st3" x1="161.6" y1="695.8" x2="163.4" y2="704.2"/>
<line class="st3" x1="144.3" y1="721.6" x2="144.6" y2="729.3"/>
<path class="st2" d="M127.4,749c0,0-42.4-86.3-54.1-84.4c-5.5,0.9-8.1,6.3-9.2,11.8c-1.4,7.1-0.6,14.4,2.3,21
	C72.4,711.2,88.6,737.4,127.4,749z"/>
<path class="st3" d="M73.6,681c0,0,44.5,64.6,53.1,67.4"/>
<line class="st3" x1="69.5" y1="691" x2="79.9" y2="691"/>
<line class="st3" x1="82" y1="714.6" x2="98.3" y2="715.3"/>
<line class="st3" x1="91.9" y1="695.8" x2="90.1" y2="704.2"/>
<line class="st3" x1="109.2" y1="721.6" x2="108.9" y2="729.3"/>
<path class="st4" d="M200.2,769.1c1.2-0.9,2-2.2,2.4-3.6c0.4-1.5-0.3-3-1.7-3.7c-1.5-0.6-3.2,0.5-4.5,1.6s-2.7,2.3-4.3,2.1
	c1.7-1.6,2.5-3.9,2-6.2c-0.1-0.5-0.3-0.9-0.6-1.3c-0.9-0.9-2.4-0.5-3.5,0.2c-3.3,2.3-4.2,6.8-4.2,10.8c-0.2-1.5-0.2-3-0.1-4.4
	c0-1.5-0.4-3.1-1.7-3.9c-0.8-0.4-1.6-0.6-2.5-0.6c-1.5,0-3.1,0.1-4.1,1.2c-1.3,1.3-0.9,3.6,0.2,5.1c1.2,1.4,2.7,2.5,4.3,3.4
	c1.2,0.7,2.2,1.7,3,2.9c0.1,0.2,0.2,0.3,0.2,0.5h9.2C196.5,772,198.5,770.7,200.2,769.1z"/>
<path class="st4" d="M38.6,734.4c1.2-0.9,2-2.2,2.4-3.6c0.4-1.5-0.3-3-1.7-3.7c-1.6-0.6-3.2,0.5-4.5,1.6s-2.7,2.3-4.3,2.1
	c1.7-1.6,2.5-3.9,2-6.2c-0.1-0.5-0.3-0.9-0.6-1.3c-0.9-0.9-2.4-0.5-3.4,0.2c-3.3,2.3-4.2,6.8-4.2,10.8c-0.2-1.5-0.2-3-0.1-4.4
	c0-1.5-0.4-3.1-1.7-3.9c-0.8-0.4-1.7-0.6-2.5-0.6c-1.5-0.1-3.1,0.1-4.1,1.2c-1.3,1.3-0.9,3.6,0.2,5c1.2,1.4,2.7,2.5,4.3,3.4
	c1.2,0.7,2.2,1.7,3,2.9c0.1,0.2,0.2,0.3,0.2,0.5h9.2C34.9,737.2,36.8,735.9,38.6,734.4z"/>
<path class="st4" d="M92.4,769.1c1.2-0.9,2-2.2,2.4-3.6c0.4-1.5-0.3-3-1.7-3.7c-1.6-0.6-3.2,0.5-4.5,1.6s-2.7,2.3-4.3,2.1
	c1.7-1.6,2.5-3.9,2-6.2c-0.1-0.5-0.3-0.9-0.6-1.3c-0.9-0.9-2.4-0.5-3.4,0.2c-3.3,2.3-4.2,6.8-4.2,10.8c-0.2-1.5-0.2-3-0.1-4.4
	c0-1.5-0.4-3.1-1.7-3.9c-0.8-0.4-1.7-0.6-2.5-0.6c-1.5,0-3.1,0.1-4.1,1.2c-1.3,1.3-0.9,3.6,0.2,5.1c1.2,1.4,2.7,2.5,4.3,3.4
	c1.2,0.7,2.2,1.7,3,2.9c0.1,0.2,0.2,0.3,0.2,0.5h9.2C88.7,772,90.7,770.7,92.4,769.1z"/>
<path class="st4" d="M245.2,698.9c0,0,3.5,4.5-1.6,11.4s-9.2,12.6-7.5,16.9c0,0,7.6-12.7,13.8-12.9C256.1,714,252,706.5,245.2,698.9
	z"/>
<path class="st5" d="M245.2,698.9c0.3,0.4,0.5,0.9,0.7,1.4c6.1,7.1,9.3,13.8,3.5,13.9c-5.4,0.2-11.9,9.9-13.5,12.3
	c0,0.2,0.1,0.4,0.2,0.6c0,0,7.6-12.7,13.8-12.9C256.1,714,252,706.5,245.2,698.9z"/>
<path class="st6" d="M251.6,704.6c0,1.6-0.2,2.9-0.4,2.9s-0.4-1.3-0.4-2.9s0.2-0.8,0.5-0.8S251.6,703.1,251.6,704.6z"/>
<path class="st6" d="M253.8,706.5c-1.4,0.8-2.6,1.2-2.7,1s0.9-1,2.3-1.7s0.8-0.2,1,0S255.2,705.8,253.8,706.5z"/>
<path class="st4" d="M226.9,698.9c0,0-3.5,4.5,1.6,11.4s9.2,12.6,7.5,16.9c0,0-7.6-12.7-13.8-12.9S220.1,706.5,226.9,698.9z"/>
<path class="st5" d="M226.9,698.9c-0.3,0.4-0.5,0.9-0.7,1.4c-6.1,7.1-9.3,13.8-3.5,13.9c5.4,0.2,11.9,9.9,13.5,12.3
	c-0.1,0.2-0.1,0.4-0.2,0.6c0,0-7.6-12.7-13.8-12.9S220.1,706.5,226.9,698.9z"/>
<path class="st6" d="M220.5,704.6c0,1.6,0.2,2.9,0.4,2.9s0.4-1.3,0.4-2.9s-0.2-0.8-0.4-0.8S220.5,703.1,220.5,704.6z"/>
<path class="st6" d="M218.3,706.5c1.4,0.8,2.6,1.2,2.7,1s-1-1-2.3-1.7s-0.9-0.2-1,0S216.9,705.8,218.3,706.5z"/>
<path class="st7" d="M221.6,726.5c0,0,9.7-0.3,12.6-2.4s14.9-4.6,15.6-1.2s14.5,16.6,3.6,16.7c-10.9,0.1-25.4-1.7-28.3-3.5
	S221.6,726.5,221.6,726.5z"/>
<path class="st8" d="M253.6,738.4c-10.9,0.1-25.4-1.7-28.3-3.5c-2.2-1.3-3.1-6.2-3.4-8.4h-0.3c0,0,0.6,7.8,3.5,9.6
	s17.4,3.6,28.3,3.5c3.2,0,4.2-1.2,4.2-2.8C257.1,737.7,255.9,738.4,253.6,738.4z"/>
<ellipse class="st1" cx="612.4" cy="794" rx="329.4" ry="14.9"/>
<path class="st9" d="M578.8,347.3c0,0,21,39.7,22.6,45.4c0.9,3.2,3.7,5.5,7.1,5.7c0,0,20.9,5,25.9,5.7s48.3,4.3,48.3,4.3
	s11,0.3,12.3-3.7c1.2-3.7,22.5-22.9,34.8-6.1c2.3,3.1,3,7.2,1.8,10.9c-2.3,7.2-6.9,18.6-11.9,11.5c-7-10-15.1-7.2-15.1-1.9
	s-11.2,3.4-14.9,4.1c-2,0.4-8.9,2.2-14.8,3.8c-6.9,1.9-14,3-21.1,3.5c-11.8,0.8-29.2,1.4-35.4-0.9c-7.5-2.8-20.4-3.5-26-3.6
	c-1.8,0-3.6-0.7-5.1-1.8c-7.7-6-14.2-13.5-19.3-21.9c-8.7-15-26.5-46.1-25.3-55.1S578.8,347.3,578.8,347.3z"/>
<path class="st10" d="M578.8,347.3c0,0,21,39.7,22.6,45.4c0.9,3.2,3.7,5.5,7.1,5.7c0,0,20.9,5,25.9,5.7s48.3,4.3,48.3,4.3
	s11,0.3,12.3-3.7c1.2-3.7,22.5-22.9,34.8-6.1c2.3,3.1,3,7.2,1.8,10.9c-2.3,7.2-6.9,18.6-11.9,11.5c-7-10-15.1-7.2-15.1-1.9
	s-11.2,3.4-14.9,4.1c-2,0.4-8.9,2.2-14.8,3.8c-6.9,1.9-14,3-21.1,3.5c-11.8,0.8-29.2,1.4-35.4-0.9c-7.5-2.8-20.4-3.5-26-3.6
	c-1.8,0-3.6-0.7-5.1-1.8c-7.7-6-14.2-13.5-19.3-21.9c-8.7-15-26.5-46.1-25.3-55.1S578.8,347.3,578.8,347.3z"/>
<path class="st11" d="M819.7,647.4c-9.5,10.3-16.5,14.4-16.2,3.5c1-33-57-182.2-57-182.2l17.2-1.3
	C801.1,531.9,815.1,598.3,819.7,647.4z"/>
<path class="st12" d="M901.5,719.4c-0.1,45.6-37.1,82.4-82.6,82.4c-42.7-0.1-78.3-32.8-82-75.4c-0.1-1.3-0.2-2.7-0.3-4v-0.1
	c0-1-0.1-2-0.1-3c0-45.6,36.9-82.5,82.5-82.5S901.5,673.8,901.5,719.4L901.5,719.4z"/>
<circle class="st13" cx="819" cy="719.4" r="45"/>
<circle class="st12" cx="819" cy="719.4" r="27"/>
<path class="st12" d="M602.4,562.7l-198.7,4v-29.3c1.8-23.6,26-31.8,48-34.4c17.2-2,34.6-0.6,51.3,3.8c42.2,11.2,69,13.3,82.2,13.5
	c6,0.1,11.1,4.4,12.2,10.3c0.6,3.3,1.3,7,1.8,10.6c0.4,2.8,0.9,5.6,1.2,8.2C601.7,556.9,602.4,562.7,602.4,562.7z"/>
<path class="st2" d="M760.9,724.7H348.2c-6.5,0.1-12.4-3.8-15-9.7c-3.1-7.4,1.2-12.2,5.9-15c9.5-5.6,16.7-14.4,20.3-24.9
	c4.4-13,8.7-33.3,10.4-65.1c1.7-32.9,13.6-49.1,26.5-57l0,0c16.6-10.2,34.8-6.3,34.8-6.3l167.3,1.3c3,1.4,5.7,3.1,8.2,5.3
	c14.9,13.9-6.8,32-6.8,32c-46.7,49.3-11.3,99.3-11.3,99.3H674c16,0.1,31.6-4.7,44.8-13.7c11.6-8,16-15.7,17.8-20.4
	c1.3-3.6,2.7-7.2,4.3-10.6c22.5-48.7-4.6-128-16.3-157.6c-2.9-7.4-4.8-11.7-4.8-11.7l26.8-2l17-1.3h0.2c37.4,64.5,51.3,130.9,56,180
	c0.4,4.6,0.8,9.1,1.1,13.4c2.1,33.1-22.9,61.6-56,63.7C763.5,724.7,762.2,724.7,760.9,724.7z"/>
<path class="st5" d="M600.6,549.4H403.7v-8.2h195.6C599.8,544,600.2,546.8,600.6,549.4z"/>
<path class="st5" d="M606.6,553.4H397.8c-0.5,0-1.1-0.1-1.6-0.3c16.6-10.2,34.8-6.3,34.8-6.3l167.3,1.3
	C601.4,549.5,604.1,551.3,606.6,553.4z"/>
<path class="st13" d="M324.8,543.2h283.5c2.3,0,4.1,1.8,4.1,4.1v0c0,2.3-1.8,4.1-4.1,4.1H324.8c-2.3,0-4.1-1.8-4.1-4.1v0
	C320.7,545,322.5,543.2,324.8,543.2z"/>
<path class="st5" d="M819.7,647.4c-9.5,10.3-16.5,14.4-16.2,3.5c1-33-57-182.2-57-182.2l17.2-1.3
	C801.1,531.9,815.1,598.3,819.7,647.4z"/>
<path class="st5" d="M901,710.4c-9.8,2.4-22,4.8-37,7c-5.6,0.8-11.6,1.6-18,2.4c-15.3,1.8-33.1,3.4-53.5,4.6
	c-5.8,0.3-11.8,0.7-18.1,1c-11.7,0.5-24.2,0.9-37.6,1.2l-0.3-4v-0.1c18.7-7.5,48-27.6,52.7-80c42.5-16.4,90.3,4.8,106.7,47.3
	C898.6,696.5,900.3,703.4,901,710.4L901,710.4z"/>
<path class="st4" d="M721.1,724.7c0,0,94.7-10.3,62.1-154.6c0,0,46.8,42.9,75.9,66.7s81,56.7,81,56.7S909.1,722.6,721.1,724.7z"/>
<circle class="st12" cx="468.1" cy="719.4" r="82.5"/>
<circle class="st13" cx="468.1" cy="719.4" r="45"/>
<circle class="st12" cx="468.1" cy="719.4" r="27"/>
<path class="st5" d="M560.6,694.6c0-53.3-42.3-96.5-94.5-96.5s-94.5,43.2-94.5,96.5c0,2.3,0.1,4.5,0.2,6.7h188.5
	C560.5,699.1,560.6,696.9,560.6,694.6z"/>
<path class="st4" d="M557.1,693c0-51.3-40.7-92.9-91-92.9s-91,41.6-91,92.9c0,2.2,0.1,4.3,0.2,6.4h181.6
	C557,697.3,557.1,695.1,557.1,693z"/>
<path class="st5" d="M557,697.4c0,0.7-0.1,1.3-0.1,2H375.3c0-0.7-0.1-1.3-0.1-2H557z"/>
<path class="st5" d="M345.9,701.4h223.1c5.9,0,10.7,4.8,10.7,10.7v0c0,5.9-4.8,10.7-10.7,10.7H345.9c-5.9,0-10.7-4.8-10.7-10.7v0
	C335.3,706.2,340,701.4,345.9,701.4z"/>
<path class="st13" d="M345.9,699.4h223.1c5.9,0,10.7,4.8,10.7,10.7v0c0,5.9-4.8,10.7-10.7,10.7H345.9c-5.9,0-10.7-4.8-10.7-10.7v0
	C335.3,704.2,340,699.4,345.9,699.4z"/>
<ellipse transform="matrix(0.9112 -0.412 0.412 0.9112 -149.2561 373.2206)" class="st5" cx="791" cy="532.8" rx="12" ry="30.2"/>
<ellipse transform="matrix(0.9112 -0.412 0.412 0.9112 -148.754 373.5432)" class="st13" cx="792" cy="531.8" rx="12" ry="30.2"/>
<path class="st5" d="M763.6,467.4v15.7h-30.5c-2.8,0-5.7-0.2-8.5-0.7c-2.9-7.4-4.8-11.7-4.8-11.7l26.8-2L763.6,467.4z"/>
<path class="st2" d="M763.6,481.1h-30.5c-26.8,0-48.5-20-48.5-44.8v-4.1c0-24.7,21.7-44.8,48.5-44.8l30.5,2.8V481.1z"/>
<path class="st4" d="M713.3,413.9c0,0,18.3,9.8,7.8,26.3c0,0-12.9,21.1-33.1,19.1l-7.4-45.4C680.6,413.9,704.8,411.6,713.3,413.9z"
	/>
<path class="st5" d="M762.6,390.2h5.9c10.3,0,18.6,8.3,18.6,18.6v53.7c0,10.3-8.3,18.6-18.6,18.6h-5.9l0,0V390.2L762.6,390.2z"/>
<path class="st13" d="M763.6,390.2h5.9c10.3,0,18.6,8.3,18.6,18.6v53.7c0,10.3-8.3,18.6-18.6,18.6h-5.9l0,0V390.2L763.6,390.2z"/>
<path class="st9" d="M547,506.9c0,0,4.7,1.7,11,4.1c10,3.8,24.1,9.5,29,12.5s23.2,8.1,36.8,11.7c10.1,2.6,20.6,3.9,31.1,3.8
	c10.6-0.1,23.5-0.2,27.1-0.2c0.6,0,1.2,0,1.9,0.1c3.7,0.6,3.6,3.1,3.5,3.7v0.1c-22,13.3-48.7,73-50.3,83
	c-1.3,7.5-12.2,28.3-17.7,38.2c-1.8,3.3-3,5.4-3,5.4l6.7,7.7l19.3,8.7l18.3,8c0,0,19.3,1,19.7,0s0.3-11.3,0.3-11.3
	c-2.4-1.5-4.6-3.2-6.7-5.1c-4.4-3.9-8.6-8.1-12.3-12.6c-10.7-12.7,10.7-37,10.7-37l41-53.3c0,0,3.3-6,19.3-30s0-37,0-37l-28.2-11.7
	C655.7,477.6,596.8,463,596.8,463l-0.8-0.1l-12.5-1.6L547,506.9z"/>
<path class="st14" d="M672.9,685.9c0,0,3.5,4.1,0.9,4.5s-9.5-1.1-9.5-1.1l-43.6-23c0,0-4.8-3.4-5.9,3.3s-1.9,6-1.9,6
	s-5.8,12.4,0,14.9s40.3,12.7,40.3,12.7s50.1,11.4,54.9-1.8s-8.5-10.9-8.5-10.9s-16.5-4-22.1-12C677.4,678.6,669.2,680.8,672.9,685.9
	z"/>
<path class="st10" d="M732.7,507.6l-28.2-11.7C655.7,477.6,596.8,463,596.8,463l-0.8-0.1l-12.5-1.6L547,506.9c0,0,4.7,1.7,11,4.1
	c10,3.8,24.1,9.5,29,12.5s23.2,8.1,36.8,11.7c10.1,2.6,20.6,3.9,31.1,3.8c10.6-0.1,23.5-0.2,27.1-0.2c0.6,0,1.2,0,1.9,0.1
	c3.7,0.6,3.6,3.1,3.5,3.7v0.1c-22,13.3-48.7,73-50.3,83c-1.3,7.5-12.2,28.3-17.7,38.2l-0.7,1.3c-1.5-0.2-3.3,0.3-3.9,4.1
	c-1.1,6.6-1.9,6-1.9,6s-5.8,12.4,0,14.9s40.3,12.7,40.3,12.7s50.1,11.4,54.9-1.8s-8.5-10.9-8.5-10.9s-16.5-4-22.1-12
	c-0.5,0.1-1,0.3-1.5,0.5c-0.6-0.5-1.2-1-1.9-1.6c-4.4-3.9-8.6-8.1-12.3-12.6c-10.7-12.7,10.7-37,10.7-37l41-53.3c0,0,3.3-6,19.3-30
	S732.7,507.6,732.7,507.6z"/>
<path class="st9" d="M513.4,283.9l1.5,1.9l0.8,1.1l5.3,6.7c0,0,12.7,4.1,23.7,6.7c11.5,2.7,21.4,3.9,13.6-2.6
	c-4.9-4-5.2-10.8-3.4-18.1c1.5-5.6,3.6-11,6.4-16.1c0.4-0.8,0.8-1.5,1.2-2.2c2.5-4.6,5.2-9,8.2-13.3c-7.1-4.9-14.5-9.5-22.1-13.6
	c-9.2-4.7-16.7-6.8-11.9,2.6c3.1,6,2.1,12.7-0.8,19.2c-0.2,0.5-0.5,1-0.7,1.5c-2.6,5-5.7,9.7-9.4,13.9
	C522,276,517.9,280.1,513.4,283.9z"/>
<polygon class="st14" points="576.8,436.2 583.6,442.4 590.1,467.6 579.2,467.6 567.1,451.9 "/>
<polygon class="st5" points="567.1,451.9 574.4,461.4 579.2,467.6 590.1,467.6 589,463.3 584.2,445 583.6,442.4 576.8,436.2 
	567.5,451.3 "/>
<polygon class="st5" points="567.1,451.9 574.4,461.4 579.2,467.6 590.1,467.6 589,463.3 584.2,445 583.6,442.4 576.8,436.2 
	567.5,451.3 "/>
<path class="st9" d="M530.8,518.2c0,0,4.7,1.7,11,4.1c10,3.8,24.1,9.5,29,12.5s23.2,8.1,36.8,11.7c10.1,2.6,20.6,3.9,31.1,3.8
	c10.6-0.1,23.5-0.2,27.1-0.2c0.6,0,1.2,0,1.9,0.1c3.7,0.6,3.6,3.1,3.5,3.7v0.1c-22,13.3-48.7,73-50.3,83
	c-1.3,7.5-12.2,28.3-17.7,38.2c-1.8,3.3-3,5.4-3,5.4l6.7,7.7l19.3,8.7l18.3,8c0,0,19.3,1,19.7,0s0.3-11.3,0.3-11.3
	c-2.4-1.5-4.6-3.2-6.7-5.1c-4.4-3.9-8.6-8.1-12.3-12.6c-10.7-12.7,10.7-37,10.7-37l41-53.3c0,0,3.3-6,19.3-30s0-37,0-37l-25.7-14.7
	c-40-24.3-96.3-38.3-96.3-38.3l-0.8-0.1l-12.5-1.6L530.8,518.2z"/>
<path class="st5" d="M600.1,680.9l6.7,7.7l19.3,8.7l18.3,8c0,0,19.3,1,19.7,0s0.3-11.3,0.3-11.3c-2.4-1.5-4.6-3.2-6.7-5.1
	c-2.1,1.1-4.4,3.2-2.2,6.4c0,0,3.5,4.1,0.9,4.5s-9.5-1.1-9.5-1.1l-43.6-23l-0.3-0.2C601.3,678.8,600.1,680.9,600.1,680.9z"/>
<path class="st14" d="M656.6,697.2c0,0,3.5,4.1,0.9,4.5s-9.5-1.1-9.5-1.1l-43.6-23c0,0-4.8-3.4-5.9,3.3s-1.9,6-1.9,6
	s-5.8,12.4,0,14.9s40.3,12.7,40.3,12.7s50.1,11.4,54.9-1.8s-8.5-10.9-8.5-10.9s-16.5-4-22.1-12C661.1,689.9,653,692.1,656.6,697.2z"
	/>
<path class="st5" d="M533.4,253.6c5.8,4,14.6,10.3,22.1,10.3c1.9,0,3.9-0.2,5.8-0.5c2.8-5.4,5.9-10.6,9.4-15.5c0,0-44-30.7-34-11
	C540.1,243.4,536.8,246.7,533.4,253.6z"/>
<path class="st9" d="M519.6,225.9c0,12.2,6.2,23.6,16.4,30.2c1.1,0.7,2.3,1.4,3.5,2c17.8,8.9,39.4,1.6,48.3-16.1
	c8.9-17.8,1.6-39.4-16.1-48.3c-17.8-8.9-39.4-1.6-48.3,16.1C520.9,214.8,519.6,220.3,519.6,225.9L519.6,225.9z"/>
<path class="st5" d="M530.8,518.2c0,0,4.7,1.7,11,4.1c4-3.5,8-6.8,9.7-7.5c3.7-1.3,15.7-8.3,15.3-10.3s5-9.7,9.7-11s2-8.3,2-8.3
	s9-3.3,11.2-8s9.1-10.7,6.8-10.3c-1-0.2-2-0.5-2.8-1.1l-12.5-1.6L530.8,518.2z"/>
<path class="st14" d="M503.4,506.2c0,0,15.3,12.7,16,18.3s11,5.3,11,5.3s15.3-14.7,19-16s15.7-8.3,15.3-10.3s5-9.7,9.7-11
	s2-8.3,2-8.3s9-3.3,11.2-8s9.1-10.7,6.8-10.3c-0.7,0.1-2.8-1-5.5-2.6c-3.3-2-7.5-4.7-10.9-7c-3.6-2.4-6.3-4.4-6.3-4.4
	s-1.6-0.3-4.3-0.7c-14.5-2.1-61.8-7.5-72.7,10c-1.5,2.3-2.6,4.8-3.3,7.5C486.6,487.3,503.4,506.2,503.4,506.2z"/>
<path class="st5" d="M519.5,465.8c0,0-15.7,8.8-21.5,8.8S519.5,465.8,519.5,465.8z"/>
<path class="st5" d="M529.9,472.6c0,0-23.3,7.8-23.3,14S504.4,470.1,529.9,472.6z"/>
<path class="st5" d="M585.8,437.3l-0.3,0.5C585.6,437.6,585.7,437.4,585.8,437.3z"/>
<path class="st5" d="M513.4,283.9l1.5,1.9l0.8,1.1l5.3,6.7c0,0,12.7,4.1,23.7,6.7c11.5,2.7,21.4,3.9,13.6-2.6
	c-4.9-4-5.2-10.8-3.4-18.1l-0.3-0.5c0,0,0.3,6.7-3.6,6.9c-5.4,0.2-5.5-1.6-10.4-3.7c-6.4-2.7-12.9-7.2-14.8-10.7
	C522,276,517.9,280.1,513.4,283.9z"/>
<path class="st5" d="M491.5,468.7c2.7,1.2,5.8,1.2,8.6,0.2c10.3-3.3,26.7-11.4,34.3-7.9c6.1,2.8,30.9,2.7,40,0.4
	c2.3-0.6,3.6-1.3,3.4-2.2c-0.1-1,0-2,0.3-2.9c1.1-3.4,3.9-8.1,6.1-11.4l-0.7-2.5l-6.8-6.2l-9.3,15c-14.5-2.1-61.8-7.5-72.7,10
	C493.3,463.5,492.2,466.1,491.5,468.7z"/>
<path class="st15" d="M484.8,460.9c0,0,4,9.3,14.3,6s26.7-11.4,34.3-7.9s44.3,2.5,43.3-1.8s9-18,9-18s-5.5-1-8.8-18.8
	c-0.5-2.6-1-5.6-1.3-8.9c-0.8-6.9-1-13.8-0.6-20.7c1.3-19.3,8.1-27.2,8.1-27.2s9.3-10.7,1.3-25.3c-4.2-7.7-21.1-29-21.3-38.5
	c-0.2-8.6-8.5-18.6-8.5-18.6s0.3,6.7-3.6,6.9c-5.4,0.2-5.5-1.6-10.4-3.7c-7.3-3.1-14.8-8.5-15.3-12.1c0,0-30.6-1.5-37.2,29.5
	s-4.3,48-3.3,51.7s9.7,51,2.7,71S484.8,460.9,484.8,460.9z"/>
<path class="st5" d="M534.6,406.4c5.5,9.3,12.9,17.4,21.7,23.7c5.9,0,11.7,0.4,17.5,1.2c-0.5-2.6-1-5.6-1.3-8.9
	c-0.8-6.9-1-13.8-0.6-20.7c-1.9-1-3.4-2.7-3.9-4.8c-1.7-5.7-16.5-32.7-16.5-32.7s-34.8-9-36,0S525.9,391.4,534.6,406.4z"/>
<path class="st9" d="M546.1,347.3c0,0,21,39.7,22.6,45.4c0.9,3.2,3.7,5.5,7.1,5.7c0,0,20.9,5,25.9,5.7s48.4,4.3,48.4,4.3
	s11,0.3,12.3-3.7c1.2-3.7,22.5-22.9,34.8-6.1c2.3,3.1,3,7.2,1.8,10.9c-2.3,7.2-6.9,18.6-11.9,11.5c-7-10-15.1-7.2-15.1-1.9
	s-11.2,3.4-14.9,4.1c-2,0.4-8.9,2.2-14.8,3.8c-6.9,1.9-14,3-21.2,3.5c-11.8,0.8-29.2,1.4-35.4-0.9c-7.4-2.8-20.4-3.5-26-3.6
	c-1.8,0-3.6-0.7-5.1-1.8c-7.7-6-14.2-13.5-19.2-21.9c-8.7-15-26.5-46.1-25.3-55.1S546.1,347.3,546.1,347.3z"/>
<path class="st5" d="M539.1,292.2c0,0,11.3,18.7,16.5,32s11.5,36.7,11.5,36.7l-31.3-3.7l-2.7-4.3c0,0-22.4,14-19.7,20s-6-9-5.3-26
	s-2.4-47.3,0-54.7S531.8,286.6,539.1,292.2z"/>
<path class="st15" d="M508.1,344.9c-0.7,17,8,32,5.3,26s19.7-20,19.7-20l2.6,4.3l31.3,3.7c0,0-6.3-23.3-11.5-36.7
	c-3.1-7.5-6.7-14.9-10.7-22c-3.2-5.8-5.7-10-5.7-10c-4.3-3.3-13.5-5.3-20.8-4.8c-1.1,0.1-2.3,0.2-3.4,0.4c-3,0.6-5.4,1.7-6.5,3.5
	c-0.2,0.3-0.3,0.6-0.4,0.9C505.7,297.6,508.8,327.9,508.1,344.9z"/>
<path class="st5" d="M494.1,391.4c0,0,13.3,18.3,17.3,18.8C511.4,410.2,494.4,406.4,494.1,391.4z"/>
<path class="st5" d="M494.1,417.4c0,0,25,25.3,33,25.5S494.1,417.4,494.1,417.4z"/>
<path class="st5" d="M494.1,428c0,0,16,18.8,17,18.8S493.9,440.2,494.1,428z"/>
<path class="st5" d="M508.5,289.4c2.6-0.4,5.1-1.2,7.3-2.5c0.9-0.5,1.7-1,2.5-1.5c3.3-2.2,6.3-4.7,9.1-7.5
	c4.6-4.5,9.2-9.4,11.1-15.5c0.4-1.4,0.7-2.9,0.9-4.3c1.1-7.7,0.2-16.2,5.7-21.4c1-1,2.2-1.8,3.5-2.4c7.8-3.7,19.1-1.3,24.9-8
	c3.7-4.2,3.6-10.1,6.5-14.7c1.2-2,3.5-3.7,5.5-5.6c-10.9-16.6-33.2-21.2-49.9-10.3c-16.6,10.9-21.2,33.2-10.3,49.9
	c2.7,4.2,6.3,7.8,10.5,10.5c-0.2,0.5-0.5,1-0.7,1.5c-6.9,14-21.8,26.3-21.8,26.3l1.5,1.9C511.9,286.4,509.5,287.6,508.5,289.4z"/>
<path class="st14" d="M571.6,225.4c-6.8,7.8-21,3.2-28.5,10.4c-6.5,6.2-3.9,17.1-6.6,25.7c-1.9,6.1-6.5,11-11.1,15.5
	c-6.7,6.5-15.3,13.1-24.4,11.3c-5.4-1.1-10.8-5.2-16-3.3c-2.6,0.9-4.5,3.2-6.4,5.2c-6.6,6.8-15.2,11.2-24.6,12.7
	c-1.8,0.4-3.8,0.3-5.6-0.3c-2.8-1.1-4.3-4.2-6.9-5.8c-5-3.2-11.4,0.1-16.6,2.9c-29.4,15.9-64.1,18.4-95.5,6.9l8.1-4
	c-1.7-3.5-6.4-4.3-9.3-6.9c-6.1-5.3-2.5-15.9,3.9-20.7s14.8-6.5,21.5-11.1c1.4-0.9,2.7-2.1,2.9-3.8c0-1.2-0.4-2.4-1.1-3.3
	c-3.6-6.3-7.5-13-6.7-20.2c1.2-11,13.2-17.8,24.3-18.5c11-0.8,22,2.5,33,2.7c4,0.1,8.2-0.3,11.6-2.4c4.8-2.9,7.2-8.4,10.1-13.1
	c5.2-8.5,12.6-15.3,21.5-19.8c10-5.1,21.3-6.8,31.7-11c10.6-4.3,20.3-11,31.4-13.7c16.1-4,33.4,1.2,47.3,10.3
	c6.7,4.4,28.1,18.3,28,27.2c-0.1,5.3-7,8.2-9.6,12.3C575.2,215.2,575.3,221.1,571.6,225.4z"/>
<g class="st16">
	<path d="M354.5,251.7c0.7,1,1.1,2.1,1.1,3.3c0,0.4-0.2,0.8-0.3,1.2c-2.9-5.2-6-10.7-6.5-16.4C350,244,352.3,247.9,354.5,251.7z"/>
	<path d="M327.3,290.6c3,2.6,7.6,3.3,9.3,6.9l-2.9,1.4c-1.9-0.9-3.8-2-5.5-3.3c-2.2-2-3.4-4.8-3.1-7.8
		C325.7,288.9,326.4,289.9,327.3,290.6z"/>
	<path d="M424,294.6c5.2-2.9,11.6-6.1,16.6-2.9c2.5,1.6,4.1,4.7,6.9,5.8c1.8,0.6,3.7,0.7,5.6,0.3c9.3-1.5,18-6,24.6-12.7
		c1.9-2,3.8-4.3,6.4-5.2c5.2-1.9,10.5,2.2,16,3.3c9.2,1.9,17.7-4.8,24.4-11.3c4.6-4.5,9.2-9.4,11.1-15.5c2.7-8.6,0.1-19.5,6.6-25.7
		c7.5-7.1,21.7-2.6,28.5-10.4c3.7-4.2,3.6-10.1,6.5-14.7c2.4-3.9,8.6-6.6,9.5-11.3c0.7,1.2,1.1,2.6,1.1,4c-0.1,5.3-7,8.2-9.6,12.3
		c-2.8,4.6-2.8,10.5-6.5,14.7c-6.8,7.8-21,3.2-28.5,10.4c-6.5,6.2-3.9,17.1-6.6,25.7c-1.9,6.1-6.5,11-11.1,15.5
		c-6.7,6.5-15.3,13.1-24.4,11.3c-5.4-1.1-10.8-5.2-16-3.3c-2.6,0.9-4.5,3.2-6.4,5.2c-6.6,6.8-15.2,11.2-24.6,12.7
		c-1.8,0.4-3.8,0.3-5.6-0.3c-2.8-1.1-4.3-4.2-6.9-5.8c-5-3.2-11.4,0.1-16.6,2.9c-29.4,15.9-64.1,18.4-95.5,6.9l5.6-2.8
		C364.8,312.6,396.8,309.4,424,294.6z"/>
</g>
<path class="st5" d="M671.1,554.1l8.4-4.1v-1.6c0-0.6-6.7,0.7-11.9,1.9C671.4,551,671.2,553.5,671.1,554.1z"/>
<ellipse class="st4" cx="678.5" cy="437.5" rx="20.3" ry="24.6"/>
<polygon class="st17" points="483.5,405.4 450.9,437.5 343.8,435.7 373.3,405.4 "/>
<polygon class="st18" points="483.5,515.3 483.5,405.4 450.9,437.5 450.9,545.1 "/>
<polygon class="st17" points="343.8,435.7 343.8,545.1 450.9,545.1 450.9,437.5 "/>
<polygon class="st19" points="343.8,435.7 343.8,545.1 450.9,545.1 450.9,437.5 "/>
<polygon class="st13" points="442.2,467.6 362.5,454 352.2,506.3 434.1,521.3 "/>
<polygon class="st4" points="426.5,479.9 372.9,471.4 371.6,478.4 425.1,487.5 "/>
<polygon class="st4" points="411.7,494.8 381.3,490.4 379.9,498.1 411.7,502.6 "/>
<polygon class="st12" points="470.3,463.1 468.8,419.8 460.5,428.1 461.9,471.4 "/>
<polygon class="st12" points="362.5,416.5 465.4,417.9 468.8,419.8 460.5,428.1 457.6,426.4 355.7,423.5 "/>
</svg>
