<?xml version="1.0" encoding="utf-8"?>
<!-- Generator: Adobe Illustrator 20.1.0, SVG Export Plug-In . SVG Version: 6.00 Build 0)  -->
<svg version="1.1" id="e8a6e089-f0a2-4336-8fc5-733c88302415"
	 xmlns="http://www.w3.org/2000/svg" xmlns:xlink="http://www.w3.org/1999/xlink" x="0px" y="0px" viewBox="0 0 741 485.5"
	 style="enable-background:new 0 0 741 485.5;" xml:space="preserve">
<style type="text/css">
	.st0{fill:#D8343A;}
	.st1{fill:#3F3D56;}
	.st2{opacity:0.2;enable-background:new    ;}
	.st3{fill:#E6E6E6;}
	.st4{fill:#FFFFFF;}
	.st5{fill:#FF6584;}
	.st6{fill:#F9A825;}
	.st7{fill:#6C63FF;}
	.st8{fill:#00BF71;}
</style>
<title>breakfast</title>
<path class="st0" d="M86.4,253H58c-2.1,0-3.8,1.7-3.8,3.8v12.5c0,2.1,1.7,3.8,3.8,3.8h4.7v18.7h19v-18.7h4.7c2.1,0,3.8-1.7,3.8-3.8
	v-12.5C90.2,254.7,88.5,253,86.4,253z"/>
<path class="st1" d="M114.9,367.2c-17.4-25.5-26.3-55.8-25.4-86.6c0-1.5-1-2.8-2.4-3.1v-5.4H57v5.3h-0.4c-1.7,0-3.1,1.4-3.1,3.1
	c0,0.1,0,0.1,0,0.2c2.4,33-5.6,62.5-24,88.7c-1.1,1.5-1.6,3.3-1.5,5.1l3.3,101.5c0.2,4.7,4,8.4,8.7,8.5H108c4.8,0,8.6-3.9,8.7-8.6
	l1.3-98.6C118,373.7,116.9,370.2,114.9,367.2z"/>
<path class="st2" d="M80.5,257.1c0,4.5-3.6,8.1-8.1,8.1s-8.1-3.6-8.1-8.1"/>
<path class="st0" d="M104.1,400.9h-8.2c-1.8-11.8-12.8-19.9-24.6-18c-9.3,1.4-16.6,8.7-18,18H45c-3.4,0-6.1,2.7-6.1,6.1
	c0,0.3,0,0.6,0.1,0.9l8.9,58h51.3l10.8-57.8c0.6-3.3-1.6-6.5-4.8-7.1C104.9,401,104.5,400.9,104.1,400.9z"/>
<polygon class="st3" points="714,307.6 712,386.4 709.5,484.2 626.4,484.2 623.6,369.7 622,307.6 "/>
<rect x="661.7" y="265.7" class="st0" width="11.8" height="156"/>
<path class="st1" d="M708.1,367l-2.2,112h-75.8l-2.6-131.2c13.8-3.9,28.6-1.8,40.8,5.6C681,360.9,695.2,364.9,708.1,367z"/>
<rect x="638" y="379.6" class="st3" width="10.8" height="10.8"/>
<rect x="645.4" y="357.6" class="st3" width="10.8" height="10.8"/>
<rect x="666.4" y="368.6" transform="matrix(0.5957 -0.8032 0.8032 0.5957 -28.7492 690.8051)" class="st3" width="10.8" height="10.8"/>
<rect x="685.9" y="387.7" transform="matrix(0.5957 -0.8032 0.8032 0.5957 -36.23 714.2145)" class="st3" width="10.8" height="10.8"/>
<rect x="652.8" y="398.7" transform="matrix(0.5957 -0.8032 0.8032 0.5957 -58.4762 692.0875)" class="st3" width="10.8" height="10.8"/>
<circle class="st1" cx="691.1" cy="351" r="2.2"/>
<circle class="st1" cx="646.3" cy="336.3" r="2.2"/>
<circle class="st1" cx="683.8" cy="320.9" r="2.2"/>
<circle class="st0" cx="365.5" cy="241.8" r="241.8"/>
<path class="st2" d="M365.5,418.2c-97.5,0-176.5-79-176.5-176.5s79-176.5,176.5-176.5S542,144.3,542,241.8
	c0,46.8-18.6,91.7-51.7,124.8C457.3,399.7,412.3,418.3,365.5,418.2z M365.5,76.2c-91.3,0-165.6,74.3-165.6,165.6
	c0,91.3,74.3,165.6,165.6,165.6c91.3,0,165.6-74.3,165.6-165.6C531.1,150.5,456.8,76.2,365.5,76.2L365.5,76.2z"/>
<circle class="st4" cx="365.5" cy="241.8" r="171"/>
<path class="st5" d="M238.3,173.4c-5.5-10.7-1.2-23.7,9.5-29.2c10.7-5.5,23.7-1.2,29.2,9.5c0,0,0,0,0,0l48.3,94.9
	c5.5,10.7,1.2,23.7-9.4,29.2c-10.7,5.5-23.7,1.2-29.2-9.4c0,0,0,0,0-0.1L238.3,173.4z"/>
<path class="st2" d="M243.7,184l-2.2-4.4c11.1-8.6,24.2-15,38.7-19.7l2.2,4.4C266.7,167.5,253.4,173.6,243.7,184z"/>
<path class="st2" d="M254.1,204.4l-2.2-4.4c11.1-8.6,24.2-15,38.7-19.7l2.2,4.4C277.1,188,263.8,194,254.1,204.4z"/>
<path class="st2" d="M264.5,224.8l-2.2-4.4c11.1-8.6,24.2-15,38.7-19.7l2.2,4.4C287.5,208.4,274.2,214.4,264.5,224.8z"/>
<path class="st2" d="M274.9,245.3l-2.2-4.4c11.1-8.6,24.2-15,38.7-19.7l2.2,4.4C297.9,228.8,284.6,234.9,274.9,245.3z"/>
<path class="st2" d="M285.3,265.7l-2.2-4.4c11.1-8.6,24.2-15,38.7-19.7l2.2,4.4C308.3,249.3,295,255.3,285.3,265.7z"/>
<path class="st5" d="M202.1,208.9c-5.4-10.7-1.2-23.7,9.5-29.2c10.7-5.4,23.7-1.2,29.2,9.5c0,0,0,0,0,0l48.3,94.9
	c5.4,10.7,1.2,23.8-9.5,29.2c-10.7,5.4-23.7,1.2-29.2-9.5L202.1,208.9z"/>
<path class="st2" d="M207.5,219.5l-2.2-4.4c11.1-8.6,24.2-15,38.7-19.7l2.2,4.4C230.5,203,217.1,209.1,207.5,219.5z"/>
<path class="st2" d="M217.9,239.9l-2.2-4.4c11.1-8.6,24.2-15,38.7-19.7l2.2,4.4C240.9,223.5,227.5,229.5,217.9,239.9z"/>
<path class="st2" d="M228.3,260.3l-2.2-4.4c11.1-8.6,24.2-15,38.7-19.7l2.2,4.4C251.3,243.9,238,250,228.3,260.3z"/>
<path class="st2" d="M238.7,280.8l-2.2-4.4c11.1-8.6,24.2-15,38.7-19.7l2.2,4.4C261.7,264.3,248.4,270.4,238.7,280.8z"/>
<path class="st2" d="M249.1,301.2l-2.2-4.4c11.1-8.6,24.2-15,38.7-19.7l2.2,4.4C272.1,284.8,258.8,290.8,249.1,301.2z"/>
<path class="st3" d="M479.8,247.2l0.2,0c10.7,0.1,20.3-6.4,24.2-16.2c4-10.1,6-20.8,5.9-31.7c-0.3-45.9-37.6-83.6-83.5-84.2
	c-46.8-0.7-85.3,36.8-85.9,83.5c-0.5,34,19.5,65.1,50.6,78.8c9.7,4.3,21,2.2,28.5-5.3C435.7,256.1,457.3,247.2,479.8,247.2z"/>
<circle class="st6" cx="436.2" cy="193.6" r="28"/>
<circle class="st1" cx="375.4" cy="187.1" r="3.3"/>
<circle class="st1" cx="266.6" cy="190.2" r="3.3"/>
<circle class="st1" cx="393" cy="152.9" r="3.3"/>
<circle class="st1" cx="392.9" cy="248" r="3.3"/>
<circle class="st1" cx="458.2" cy="146.1" r="3.3"/>
<circle class="st1" cx="245.2" cy="236.3" r="3.3"/>
<circle class="st1" cx="269.3" cy="283.7" r="3.3"/>
<circle class="st5" cx="420.7" cy="289.9" r="12.4"/>
<path class="st2" d="M430,290.7c0,5.2-4.2,9.3-9.3,9.3c-5.1,0-9.3-4.2-9.3-9.3"/>
<path class="st2" d="M411.4,289.2c0-5.2,4.2-9.3,9.3-9.3c5.1,0,9.3,4.2,9.3,9.3"/>
<ellipse class="st5" cx="416" cy="285.7" rx="0.8" ry="1.2"/>
<ellipse class="st5" cx="420.7" cy="284.1" rx="0.8" ry="1.2"/>
<ellipse class="st5" cx="420.7" cy="294.2" rx="0.8" ry="1.2"/>
<ellipse class="st5" cx="425.4" cy="288" rx="0.8" ry="1.2"/>
<ellipse class="st5" cx="424.6" cy="296.6" rx="0.8" ry="1.2"/>
<ellipse class="st5" cx="415.3" cy="292.7" rx="0.8" ry="1.2"/>
<circle class="st5" cx="445.6" cy="256.5" r="12.4"/>
<path class="st2" d="M454.9,257.3c0,5.2-4.2,9.3-9.3,9.3c-5.1,0-9.3-4.2-9.3-9.3"/>
<path class="st2" d="M436.2,255.7c0-5.2,4.2-9.3,9.3-9.3c5.1,0,9.3,4.2,9.3,9.3"/>
<ellipse class="st5" cx="440.9" cy="252.2" rx="0.8" ry="1.2"/>
<ellipse class="st5" cx="445.6" cy="250.7" rx="0.8" ry="1.2"/>
<ellipse class="st5" cx="445.6" cy="260.8" rx="0.8" ry="1.2"/>
<ellipse class="st5" cx="450.2" cy="254.6" rx="0.8" ry="1.2"/>
<ellipse class="st5" cx="449.5" cy="263.1" rx="0.8" ry="1.2"/>
<ellipse class="st5" cx="440.1" cy="259.2" rx="0.8" ry="1.2"/>
<circle class="st7" cx="470.4" cy="273.6" r="12.4"/>
<path class="st2" d="M479.8,274.4c0,5.2-4.2,9.3-9.3,9.3c-5.1,0-9.3-4.2-9.3-9.3"/>
<path class="st2" d="M461.1,272.8c0-5.2,4.2-9.3,9.3-9.3c5.1,0,9.3,4.2,9.3,9.3"/>
<ellipse class="st7" cx="465.8" cy="269.3" rx="0.8" ry="1.2"/>
<ellipse class="st7" cx="470.4" cy="267.8" rx="0.8" ry="1.2"/>
<ellipse class="st7" cx="470.4" cy="277.9" rx="0.8" ry="1.2"/>
<ellipse class="st7" cx="475.1" cy="271.7" rx="0.8" ry="1.2"/>
<ellipse class="st7" cx="474.3" cy="280.2" rx="0.8" ry="1.2"/>
<ellipse class="st7" cx="465" cy="276.3" rx="0.8" ry="1.2"/>
<circle class="st7" cx="408.3" cy="275.2" r="12.4"/>
<path class="st2" d="M417.6,276c0,5.2-4.2,9.3-9.3,9.3c-5.1,0-9.3-4.2-9.3-9.3"/>
<path class="st2" d="M398.9,274.4c0-5.2,4.2-9.3,9.3-9.3c5.1,0,9.3,4.2,9.3,9.3"/>
<ellipse class="st7" cx="403.6" cy="270.9" rx="0.8" ry="1.2"/>
<ellipse class="st7" cx="408.3" cy="269.3" rx="0.8" ry="1.2"/>
<ellipse class="st7" cx="408.3" cy="279.5" rx="0.8" ry="1.2"/>
<ellipse class="st7" cx="412.9" cy="273.2" rx="0.8" ry="1.2"/>
<ellipse class="st7" cx="412.1" cy="281.8" rx="0.8" ry="1.2"/>
<ellipse class="st7" cx="402.8" cy="277.9" rx="0.8" ry="1.2"/>
<circle class="st7" cx="436.2" cy="280.6" r="12.4"/>
<path class="st2" d="M445.6,281.4c0,5.2-4.2,9.3-9.3,9.3c-5.2,0-9.3-4.2-9.3-9.3c0,0,0,0,0,0"/>
<path class="st2" d="M426.9,279.8c0-5.2,4.2-9.3,9.3-9.3c5.2,0,9.3,4.2,9.3,9.3c0,0,0,0,0,0"/>
<ellipse class="st7" cx="431.6" cy="276.3" rx="0.8" ry="1.2"/>
<ellipse class="st7" cx="436.2" cy="274.8" rx="0.8" ry="1.2"/>
<ellipse class="st7" cx="436.2" cy="284.9" rx="0.8" ry="1.2"/>
<ellipse class="st7" cx="440.9" cy="278.7" rx="0.8" ry="1.2"/>
<ellipse class="st7" cx="440.1" cy="287.2" rx="0.8" ry="1.2"/>
<ellipse class="st7" cx="430.8" cy="283.3" rx="0.8" ry="1.2"/>
<circle class="st5" cx="455.7" cy="293.8" r="12.4"/>
<path class="st2" d="M465,294.6c0,5.2-4.2,9.3-9.3,9.3s-9.3-4.2-9.3-9.3"/>
<path class="st2" d="M446.4,293.1c0-5.2,4.2-9.3,9.3-9.3s9.3,4.2,9.3,9.3l0,0"/>
<ellipse class="st5" cx="451" cy="289.6" rx="0.8" ry="1.2"/>
<ellipse class="st5" cx="455.7" cy="288" rx="0.8" ry="1.2"/>
<ellipse class="st5" cx="455.7" cy="298.1" rx="0.8" ry="1.2"/>
<ellipse class="st5" cx="460.3" cy="291.9" rx="0.8" ry="1.2"/>
<ellipse class="st5" cx="459.6" cy="300.4" rx="0.8" ry="1.2"/>
<ellipse class="st5" cx="450.2" cy="296.6" rx="0.8" ry="1.2"/>
<circle class="st1" cx="295.7" cy="246.4" r="3.3"/>
<polygon class="st6" points="385.3,366.1 306.2,344.1 309.2,332.9 388.4,354.8 "/>
<path class="st6" d="M373.7,362.3c-27.1,5.2-55,5.2-82.1,0v-11.7c27.2,4.5,54.9,4.5,82.1,0V362.3z"/>
<path class="st6" d="M382.2,327.3c-27.1,5.2-55,5.2-82.1,0v-11.7c27.2,4.5,54.9,4.5,82.1,0L382.2,327.3z"/>
<path class="st6" d="M410.6,341.3c-27.1,5.2-55,5.2-82.1,0v-11.7c27.2,4.5,54.9,4.5,82.1,0V341.3z"/>
<path class="st6" d="M417.5,354.5c-27.1,5.2-55,5.2-82.1,0v-11.7c27.2,4.5,54.9,4.5,82.1,0V354.5z"/>
<polygon class="st6" points="441.5,371.8 360.6,385.4 358.7,373.9 439.7,360.3 "/>
<path class="st6" d="M429.4,373.3c-22.5,16.2-47.8,28-74.6,34.8l-4.8-10.6c26.6-7.4,51.8-19.2,74.6-34.8L429.4,373.3z"/>
<path class="st6" d="M422.7,337.9c-22.5,16.2-47.8,28-74.6,34.8l-4.8-10.6c26.6-7.4,51.8-19.2,74.6-34.8L422.7,337.9z"/>
<path class="st6" d="M454.2,338.6c-22.5,16.2-47.8,28-74.6,34.8l-4.8-10.6c26.6-7.4,51.8-19.2,74.6-34.8L454.2,338.6z"/>
<path class="st6" d="M466,347.7c-22.5,16.2-47.8,28-74.6,34.8l-4.8-10.6c26.6-7.4,51.8-19.2,74.6-34.8L466,347.7z"/>
<rect x="364" y="324.9" class="st8" width="3.9" height="3.9"/>
<rect x="375.6" y="392.6" class="st8" width="3.9" height="3.9"/>
<rect x="313.4" y="324.9" class="st8" width="3.9" height="3.9"/>
<rect x="403.6" y="373.1" class="st8" width="3.9" height="3.9"/>
<rect x="405.9" y="350.6" class="st8" width="3.9" height="3.9"/>
<rect x="341" y="337" transform="matrix(0.5614 -0.8275 0.8275 0.5614 -130.8672 432.4642)" class="st8" width="3.1" height="5.4"/>
<rect x="386.9" y="345.5" transform="matrix(0.5614 -0.8275 0.8275 0.5614 -117.8295 474.1667)" class="st8" width="3.1" height="5.4"/>
<rect x="330.9" y="360.3" transform="matrix(0.5614 -0.8275 0.8275 0.5614 -154.597 434.329)" class="st8" width="3.1" height="5.4"/>
<rect x="361.6" y="358.4" transform="matrix(0.5614 -0.8275 0.8275 0.5614 -138.0466 459.3392)" class="st8" width="5.4" height="3.1"/>
<rect x="382.6" y="363.8" transform="matrix(0.5614 -0.8275 0.8275 0.5614 -133.345 479.0937)" class="st8" width="5.4" height="3.1"/>
<rect x="438.6" y="345.1" transform="matrix(0.5614 -0.8275 0.8275 0.5614 -93.358 517.2312)" class="st8" width="5.4" height="3.1"/>
</svg>
